<svg width="120" height="120" viewBox="0 0 120 120" fill="none" xmlns="http://www.w3.org/2000/svg">
<!-- head base -->
<ellipse cx="60" cy="58" rx="34" ry="32" fill="#F58021"/>
<!-- pointed ears -->
<ellipse cx="33" cy="22" rx="11" ry="13" fill="#F58021"/>
<ellipse cx="87" cy="22" rx="11" ry="13" fill="#F58021"/>
<ellipse cx="33" cy="22" rx="5.5" ry="7.5" fill="#20113D" opacity="0.22"/>
<ellipse cx="87" cy="22" rx="5.5" ry="7.5" fill="#20113D" opacity="0.22"/>
<!-- dark crown cap -->
<path d="M34 44 Q60 24 86 44 Q78 36 60 34 Q42 36 34 44Z" fill="#20113D"/>
<!-- ringed tail arc at bottom -->
<path d="M30 88 Q60 96 90 88 Q84 92 60 94 Q36 92 30 88Z" fill="#20113D" opacity="0.7"/>
<path d="M34 88 Q60 93 86 88" stroke="#F58021" stroke-width="3" fill="none" opacity="0.5" stroke-dasharray="6 5"/>
<!-- large eye masks -->
<ellipse cx="44" cy="56" rx="13" ry="11" fill="#20113D"/>
<ellipse cx="76" cy="56" rx="13" ry="11" fill="#20113D"/>
<circle cx="44" cy="56" r="7" fill="#F58021" opacity="0.5"/>
<circle cx="76" cy="56" r="7" fill="#F58021" opacity="0.5"/>
<circle cx="44" cy="56" r="4.5" fill="#20113D"/>
<circle cx="76" cy="56" r="4.5" fill="#20113D"/>
<circle cx="45.2" cy="54.8" r="1.5" fill="#F58021"/>
<circle cx="77.2" cy="54.8" r="1.5" fill="#F58021"/>
<!-- snout -->
<path d="M48 66 Q60 80 72 66 Q66 61 60 60 Q54 61 48 66Z" fill="#20113D"/>
<ellipse cx="60" cy="65" rx="4.5" ry="3.5" fill="#20113D"/>
<!-- nose bridge stripe -->
<rect x="58.5" y="34" width="3" height="20" rx="1.5" fill="#20113D"/>
<!-- mouth -->
<path d="M60 72 L60 74 M60 74 C58 76 55.5 75.5 54.5 74.5 M60 74 C62 76 64.5 75.5 65.5 74.5" stroke="#20113D" stroke-width="1.1" fill="none" stroke-linecap="round"/>
</svg>
