<svg width="400" height="800" viewBox="0 0 400 800" xmlns="http://www.w3.org/2000/svg">
<rect width="400" height="800" fill="#FFFFFF"/>
<defs>
<g id="icon">

<ellipse cx="0" cy="20" rx="22" ry="14" fill="#20113D"/>
<path d="M-36,8 Q0,2 36,8 Q28,16 0,18 Q-28,16 -36,8 Z" fill="#20113D"/>
<path d="M-28,-16 Q0,-36 28,-16 Q20,-24 0,-26 Q-20,-24 -28,-16 Z" fill="#20113D"/>
<ellipse cx="-18" cy="-8" rx="9" ry="8" fill="#20113D"/>
<ellipse cx="18" cy="-8" rx="9" ry="8" fill="#20113D"/>
<circle cx="-18" cy="-8" r="4.5" fill="white" opacity="0.32"/>
<circle cx="18" cy="-8" r="4.5" fill="white" opacity="0.32"/>
<circle cx="-18" cy="-8" r="2.8" fill="#20113D"/>
<circle cx="18" cy="-8" r="2.8" fill="#20113D"/>
<circle cx="-16" cy="-10" r="1.1" fill="white"/>
<circle cx="20" cy="-10" r="1.1" fill="white"/>
<path d="M-36,-18 Q-18,-26 -6,-18" stroke="#20113D" stroke-width="3.5" fill="none" stroke-linecap="round"/>
<path d="M6,-18 Q18,-26 36,-18" stroke="#20113D" stroke-width="3.5" fill="none" stroke-linecap="round"/>
<path d="M-14,4 Q0,0 14,4 Q10,12 6,16 Q0,19 -6,16 Q-10,12 -14,4 Z" fill="#20113D"/>
<path d="M-14,4 Q0,8 14,4" stroke="white" stroke-width="1" opacity="0.4" fill="none"/>
</g>
</defs>
<use href="#icon" transform="translate(65,80) rotate(-8) scale(1.0)" opacity="0.05"/>
<use href="#icon" transform="translate(195,70) rotate(5) scale(1.1)" opacity="0.04"/>
<use href="#icon" transform="translate(325,82) rotate(-3) scale(0.9)" opacity="0.05"/>
<use href="#icon" transform="translate(130,180) rotate(6) scale(1.0)" opacity="0.04"/>
<use href="#icon" transform="translate(260,172) rotate(-10) scale(0.95)" opacity="0.05"/>
<use href="#icon" transform="translate(390,182) rotate(4) scale(1.05)" opacity="0.04"/>
<use href="#icon" transform="translate(55,280) rotate(10) scale(0.95)" opacity="0.05"/>
<use href="#icon" transform="translate(185,272) rotate(-6) scale(1.1)" opacity="0.04"/>
<use href="#icon" transform="translate(315,282) rotate(3) scale(0.9)" opacity="0.05"/>
<use href="#icon" transform="translate(120,382) rotate(-4) scale(1.05)" opacity="0.04"/>
<use href="#icon" transform="translate(250,374) rotate(8) scale(0.9)" opacity="0.05"/>
<use href="#icon" transform="translate(380,384) rotate(-7) scale(1.0)" opacity="0.04"/>
<use href="#icon" transform="translate(60,480) rotate(-11) scale(1.0)" opacity="0.05"/>
<use href="#icon" transform="translate(190,472) rotate(4) scale(0.95)" opacity="0.04"/>
<use href="#icon" transform="translate(320,482) rotate(-5) scale(1.08)" opacity="0.05"/>
<use href="#icon" transform="translate(130,582) rotate(7) scale(0.95)" opacity="0.04"/>
<use href="#icon" transform="translate(258,574) rotate(-8) scale(1.1)" opacity="0.05"/>
<use href="#icon" transform="translate(385,583) rotate(3) scale(0.9)" opacity="0.04"/>
<use href="#icon" transform="translate(70,682) rotate(10) scale(1.0)" opacity="0.05"/>
<use href="#icon" transform="translate(200,674) rotate(-5) scale(0.95)" opacity="0.04"/>
<use href="#icon" transform="translate(330,684) rotate(6) scale(1.05)" opacity="0.05"/>
<use href="#icon" transform="translate(140,762) rotate(-7) scale(1.0)" opacity="0.04"/>
<use href="#icon" transform="translate(270,755) rotate(5) scale(1.05)" opacity="0.05"/>
<use href="#icon" transform="translate(20,770) rotate(-4) scale(0.9)" opacity="0.04"/>
</svg>